<svg id="main-image-svg" width="810" height="618" viewBox="0 0 810 618" fill="none" xmlns="http://www.w3.org/2000/svg">
<g id="main-image">
<g id="main image">
<g id="background">
<path id="Vector" opacity="0.16" d="M80.5702 476.347C80.5702 294.404 225.331 146.911 403.904 146.911C582.476 146.911 727.237 294.404 727.237 476.347" fill="#8C3D32"/>
<path id="Vector 2" d="M403.905 521.134C625.319 521.134 804.809 508.162 804.809 492.162C804.809 476.161 625.319 463.189 403.905 463.189C182.491 463.189 3 476.161 3 492.162C3 508.162 182.491 521.134 403.905 521.134Z" fill="#D3D3D3"/>
</g>
<g id="shadows">
<path id="Vector 3" d="M126.026 573.668C179.022 573.668 221.985 572.014 221.985 569.974C221.985 567.935 179.022 566.281 126.026 566.281C73.0292 566.281 30.0667 567.935 30.0667 569.974C30.0667 572.014 73.0292 573.668 126.026 573.668Z" fill="#D3D3D3"/>
<path id="Vector 4" d="M322.845 606.592C375.841 606.592 418.804 604.939 418.804 602.899C418.804 600.859 375.841 599.206 322.845 599.206C269.848 599.206 226.886 600.859 226.886 602.899C226.886 604.939 269.848 606.592 322.845 606.592Z" fill="#D3D3D3"/>
<path id="Vector 5" d="M481.072 559.997C534.068 559.997 577.031 558.344 577.031 556.304C577.031 554.264 534.068 552.61 481.072 552.61C428.075 552.61 385.113 554.264 385.113 556.304C385.113 558.344 428.075 559.997 481.072 559.997Z" fill="#D3D3D3"/>
<path id="Vector 6" d="M683.251 589.669C736.248 589.669 779.21 588.015 779.21 585.975C779.21 583.935 736.248 582.282 683.251 582.282C630.255 582.282 587.292 583.935 587.292 585.975C587.292 588.015 630.255 589.669 683.251 589.669Z" fill="#D3D3D3"/>
</g>
<g id="backgroundShapes">
<path id="Vector 7" opacity="0.5" d="M170.51 94.6598C170.51 97.6203 168.229 100.019 165.415 100.019H113.674C110.859 100.019 108.578 97.6203 108.578 94.6598V51.164C108.578 48.2036 110.859 45.8044 113.674 45.8044H165.415C168.23 45.8044 170.511 48.2036 170.511 51.164V94.6598H170.51Z" fill="#A84538"/>
<path id="Vector 8" opacity="0.5" d="M803.584 130.09C805.552 134.587 803.68 139.91 799.404 141.978L720.795 180.015C716.519 182.085 711.458 180.116 709.492 175.619L680.585 109.537C678.618 105.04 680.49 99.7167 684.766 97.6483L763.375 59.6115C767.65 57.5422 772.712 59.5111 774.678 64.008L803.584 130.09Z" fill="#A84538"/>
<path id="Vector 9" d="M622.87 65.8909C638.857 65.8909 651.818 52.2601 651.818 35.4455C651.818 18.6309 638.857 5 622.87 5C606.882 5 593.922 18.6309 593.922 35.4455C593.922 52.2601 606.882 65.8909 622.87 65.8909Z" fill="#A84538"/>
<path id="Vector 10" d="M157.373 238.235C173.36 238.235 186.32 224.604 186.32 207.79C186.32 190.975 173.36 177.344 157.373 177.344C141.385 177.344 128.425 190.975 128.425 207.79C128.425 224.604 141.385 238.235 157.373 238.235Z" fill="#A84538"/>
<path id="Vector 11" d="M728.674 262.062C714.496 262.062 702.962 249.931 702.962 235.019C702.962 220.107 714.496 207.977 728.674 207.977C742.851 207.977 754.386 220.107 754.386 235.019C754.386 249.931 742.851 262.062 728.674 262.062ZM728.674 208.991C715.028 208.991 703.927 220.668 703.927 235.019C703.927 249.371 715.029 261.047 728.674 261.047C742.32 261.047 753.422 249.371 753.422 235.019C753.422 220.668 742.319 208.991 728.674 208.991Z" fill="#A84538" stroke="#C27168" stroke-width="2"/>
<path id="Vector 12" d="M52.7549 191.727C30.282 191.727 12 172.498 12 148.864C12 125.229 30.283 106 52.7549 106C75.2268 106 93.5098 125.228 93.5098 148.864C93.5098 172.499 75.2268 191.727 52.7549 191.727ZM52.7549 107.015C30.8147 107.015 12.965 125.788 12.965 148.864C12.965 171.939 30.8147 190.712 52.7549 190.712C74.6951 190.712 92.5448 171.939 92.5448 148.864C92.5438 125.788 74.6941 107.015 52.7549 107.015Z" fill="#A84538" stroke="#C27168" stroke-width="2"/>
</g>
<g id="people">
<path id="Vector 13" d="M552.201 407.595C552.201 407.595 559.213 425.38 560.615 428.312C561.772 430.733 564.057 432.271 566.227 433.808C566.922 434.3 567.649 435.457 568.265 436.433C568.76 437.217 568.784 438.175 568.469 439.05C562.963 454.344 546.15 460.494 545.755 459.345C545.044 457.274 547.539 453.107 551.063 451.021C554.611 448.922 556.657 444.919 556.813 440.743C556.937 437.42 556.218 434.121 554.725 431.164L547.873 417.921L552.201 407.595Z" fill="#FEEDD3"/>
<path id="Vector 14" d="M528.021 429.859L523.825 448.856C522.542 454.664 523.349 460.759 526.091 466.016C526.092 466.018 526.092 466.019 526.092 466.019C527.632 468.958 526.263 472.598 523.183 473.718C513.228 477.337 493.926 484.218 493.065 483.475C488.678 479.686 500.277 473.443 508.848 466.878C514.629 462.451 516.839 441.821 517.353 425.998L526.546 428.356C527.261 428.56 527.82 429.13 528.021 429.859Z" fill="#FEEDD3"/>
<path id="Vector 15" d="M510.803 472.279C506.681 473.661 502.163 474.108 498.022 474.628C497.548 474.688 497.093 474.875 496.715 475.174C492.743 478.31 490.739 481.464 493.065 483.474C494 484.281 516.678 476.099 525.522 472.864C527.371 472.188 528.18 470.003 527.255 468.237L525.569 465.02C520.947 468.02 516.026 470.528 510.803 472.279Z" fill="#6C6D6F"/>
<path id="Vector 16" d="M520.195 218.392C531.158 219.916 540.498 232.794 538.571 247.172C537.464 255.433 529.918 285.009 521.619 308.388C518.433 317.361 519.734 327.533 525.701 334.887C526.672 336.085 527.516 337.325 528.187 338.583C531.647 345.075 544.964 383.425 552.785 409.017C552.162 412.367 550.201 416.613 547.74 418.091C533.984 396.361 511.617 356.692 507.937 349.788C505.894 345.953 503.661 341.518 502.03 337.353C493.124 325.344 494.848 258.248 496.635 244.908C498.563 230.529 509.232 216.867 520.195 218.392Z" fill="#6C6D6F"/>
<path id="Vector 17" d="M534.092 160.158C543.413 160.158 550.969 150.225 550.969 137.973C550.969 125.721 543.413 115.788 534.092 115.788C524.77 115.788 517.214 125.721 517.214 137.973C517.214 150.225 524.77 160.158 534.092 160.158Z" fill="#6C6D6F"/>
<path id="Vector 18" d="M517.21 108.511C517.21 108.511 507.713 114.6 508.867 122.804C508.867 122.804 503.795 119.144 502.648 106.538C501.853 97.8032 517.21 108.511 517.21 108.511Z" fill="#6C6D6F"/>
<path id="Vector 19" d="M509.235 158.499C509.072 165.574 508.716 172.683 507.837 179.804C506.92 186.908 505.604 194.066 503.098 200.965C501.842 204.405 500.291 207.774 498.332 210.925C496.387 214.079 493.986 216.993 491.162 219.405C488.348 221.824 485.143 223.748 481.756 225.048C478.365 226.351 474.829 227.048 471.32 227.365C470.628 227.428 470.017 226.907 469.956 226.202C469.898 225.539 470.353 224.947 470.984 224.828C477.554 223.602 483.686 220.691 488.166 216.07C492.71 211.492 495.477 205.375 497.227 199.007C498.965 192.6 499.802 185.863 500.193 179.071C500.409 175.674 500.502 172.254 500.52 168.822C500.553 165.391 500.528 161.948 500.45 158.497C500.393 156.025 502.313 153.975 504.74 153.917C507.166 153.858 509.179 155.815 509.236 158.288C509.237 158.355 509.237 158.435 509.235 158.499Z" fill="#FDDCD7"/>
<path id="Vector 20" d="M506.58 201.008C502.78 189.342 495.137 164.636 495.79 156.562C496.209 151.388 500.451 147.428 505.546 147.428H538.599C544.079 147.428 548.563 151.855 548.723 157.437C549.002 167.191 544.591 189.39 542.11 201.009H506.58V201.008Z" fill="#E5779A"/>
<path id="Vector 21" d="M517.553 430.097C517.034 429.775 516.744 429.174 516.761 428.554C517.461 403.784 518.938 372.211 519.474 366.16C519.535 365.467 519.616 364.785 519.715 364.114C514.506 334.833 513.719 271.885 513.202 260.861C512.521 246.366 521.09 230.012 532.142 229.473C543.195 228.934 555.191 240.59 558.741 253.871C561.083 262.635 552.028 309.271 542.215 343.072C540.15 350.187 539.826 357.67 540.866 365.014C541.585 370.094 541.8 375.326 541.446 379.326C540.919 385.281 534.373 409.528 528.233 430.29C528.056 430.891 527.585 431.367 526.984 431.502C523.804 432.214 520.489 431.92 517.553 430.097Z" fill="#6C6D6F"/>
<path id="Vector 22" d="M545.79 215.371C544.08 210.479 543.567 205.246 544.285 200.104C545.953 188.168 548.867 165.685 548.598 156.141C548.454 151.038 544.353 147 539.343 147H534.442C532.575 151.411 528.619 154.819 522.47 154.819C516.329 154.819 512.374 151.411 510.503 147H505.901C510.903 157.91 509.104 172.302 500.5 180.701C502.099 186.458 503.444 192.254 504.45 196.951C505.813 203.313 505.211 209.942 502.752 215.954C498.527 226.283 495.181 242.849 496.177 249.413C530.947 259.454 554.992 241.683 554.992 241.683L545.79 215.371Z" fill="#A84538"/>
<path id="Vector 23" d="M517.21 149.745L532.204 148.141L527.46 131.423L517.761 132.646L517.21 149.745Z" fill="#FEEDD3"/>
<path id="Vector 24" d="M517.761 132.646L527.459 131.423L528.94 136.642C526.769 139.136 523.979 144.523 520.45 144.523C519.331 144.523 518.31 144.201 517.393 143.608L517.761 132.646Z" fill="#FAE4C2"/>
<path id="Vector 25" d="M517.426 140.728C520.72 140.727 524.281 139.048 529.188 134.681C532.004 132.174 534.092 127.802 534.092 124.848V108.511H509.405C509.405 108.511 507.552 117.185 509.351 125.793C510.699 132.25 514.837 140.729 517.426 140.728Z" fill="#FEEDD3"/>
<path id="Vector 26" d="M529.906 121.758C529.906 124.945 531.403 127.53 533.25 127.53C535.098 127.53 537.135 123.352 537.135 120.165C537.135 116.977 535.098 115.987 533.25 115.987C531.403 115.987 529.906 118.57 529.906 121.758Z" fill="#FEEDD3"/>
<path id="Vector 27" d="M537.135 110.49C537.135 105.388 533.075 101.253 528.068 101.255L519.737 101.258C517.354 101.259 515.042 100.624 513.015 99.452C510.075 97.753 506.359 98.3183 504.353 101.091C502.186 104.087 501.247 108.099 506.745 111.815C509.477 113.661 513.472 111.616 516.135 112.502C516.299 112.495 516.445 112.468 516.616 112.468H523.96C526.512 112.468 528.465 114.593 528.539 117.192C528.585 118.836 529.909 120.154 531.533 120.154H531.86L533.035 116.315L537.135 121.946V110.49Z" fill="#6C6D6F"/>
<path id="Vector 28" d="M464.539 220.395C464.539 220.395 473.175 221.423 473.741 224.214C474.307 227.004 474.185 228.982 470.231 229.973C466.276 230.964 460.387 230.404 456.922 229.348C453.457 228.292 448.384 224.024 448.136 223.202C447.236 220.208 453.316 222.792 456.32 223.898C459.325 225.003 462.825 225.948 462.938 224.325C463.051 222.702 457.142 221.025 456.668 219.123C456.195 217.217 464.539 220.395 464.539 220.395Z" fill="#ECE0DE"/>
<path id="Vector 29" d="M511.245 108.225C512.073 111.956 510.852 113.998 522.858 119.823C534.864 125.648 538.665 123.16 542.414 129.431C542.414 129.431 540.775 119.042 534.144 115.476C527.511 111.911 516.011 109.581 512.323 101.324C512.323 101.323 510.68 105.674 511.245 108.225Z" fill="#6C6D6F"/>
<path id="Vector 30" d="M545.552 156.358C545.906 156.928 546.432 157.684 546.909 158.336C547.397 159.013 547.906 159.682 548.434 160.328C549.482 161.632 550.611 162.856 551.787 163.973C552.95 165.114 554.186 166.13 555.465 166.961C556.736 167.837 558.067 168.44 559.38 168.853C560.702 169.316 561.995 169.341 563.293 169.269C563.929 169.126 564.59 169.099 565.218 168.807C565.535 168.684 565.865 168.606 566.181 168.459L567.12 167.945C569.647 166.531 571.899 164.058 573.893 161.347C577.883 155.82 580.763 149.147 583.283 142.397C585.762 135.6 587.793 128.584 589.756 121.525L589.761 121.507C589.927 120.907 590.54 120.56 591.128 120.729C591.673 120.887 592.006 121.434 591.919 121.991C590.787 129.294 589.395 136.578 587.437 143.781L585.848 149.164C585.214 150.934 584.594 152.711 583.935 154.481C582.473 157.977 580.986 161.496 578.856 164.812C576.781 168.122 574.228 171.377 570.545 173.772L569.136 174.63C568.648 174.891 568.109 175.088 567.592 175.314C566.574 175.807 565.428 176.019 564.308 176.285C563.745 176.409 563.162 176.407 562.587 176.463C562.009 176.511 561.43 176.548 560.862 176.481C560.292 176.438 559.718 176.396 559.149 176.335L557.503 175.97C555.35 175.393 553.336 174.507 551.572 173.392C549.772 172.307 548.149 171.048 546.664 169.694C545.164 168.345 543.809 166.889 542.544 165.373C541.908 164.617 541.298 163.841 540.706 163.046C540.107 162.223 539.583 161.482 538.972 160.498C537.831 158.659 538.368 156.225 540.172 155.062C541.977 153.899 544.365 154.446 545.507 156.284L545.509 156.287L545.552 156.358Z" fill="#FEEDD3"/>
<path id="Vector 31" d="M513.554 108.92C513.554 108.92 513.098 121.491 502.316 127.53C502.316 127.53 507.068 118.028 506.744 111.816C506.421 105.602 514.266 104.627 513.554 108.92Z" fill="#6C6D6F"/>
<path id="Vector 32" d="M572.441 443.411C573.155 442.575 573.169 441.341 572.468 440.494C571.896 439.803 570.372 437.904 569.228 436.479C568.73 435.859 567.794 436.002 567.456 436.725C563.624 444.893 557.223 451.262 548.878 452.432C546.17 454.297 544.445 458.507 545.007 460.146C545.14 460.53 548.843 460.584 552.737 458.313C570.026 448.233 572.441 443.411 572.441 443.411Z" fill="#6C6D6F"/>
<path id="Vector 33" d="M589.706 117.866C589.706 117.866 586.001 122.865 587.123 124.524C588.245 126.182 589.298 127.086 591.727 125.511C594.157 123.936 596.755 120.596 597.919 118.276C599.082 115.955 599.422 111.228 599.13 110.697C598.068 108.764 596.392 113.193 595.479 115.298C594.564 117.403 593.327 119.687 592.458 118.952C591.588 118.217 593.636 114.322 592.913 113.145C592.19 111.967 589.706 117.866 589.706 117.866Z" fill="#FEEDD3"/>
<path id="Vector 34" d="M526.12 192.214C504.413 193.359 482.6 192.408 461.068 189.375C459.339 189.131 457.804 190.412 456.463 191.552C445.638 200.748 430.557 205.054 419.135 213.552C415.338 214.247 415.156 215.888 414.898 220.85C414.872 221.349 414.85 221.873 415.058 222.326C415.32 222.899 415.891 223.246 416.45 223.515C419.03 224.761 421.943 225.043 424.788 225.288C449.734 227.44 474.8 228.151 499.825 227.422L500.743 227.796C500.822 227.721 500.899 227.647 500.977 227.572C501.103 227.453 501.224 227.328 501.348 227.208C501.537 227.129 501.714 227.028 501.85 226.868C501.918 226.789 501.934 226.682 501.98 226.59C509.703 219.186 517.257 211.597 524.607 203.807C527.368 200.884 526.837 196.207 526.12 192.214Z" fill="#DEB887"/>
<path id="Vector 35" d="M452.71 202.63C444.703 206.953 436.692 211.278 428.522 215.272C431.722 215.733 434.966 215.738 438.196 215.722C448.211 215.67 458.255 215.423 468.213 216.498C477.811 217.534 487.412 219.796 497.011 218.773C498.026 218.665 499.055 218.515 499.983 218.082C500.912 217.648 501.695 216.952 502.454 216.255C508.238 210.953 513.516 205.078 518.19 198.74C517.664 199.453 512.607 199.186 511.639 199.247C509.349 199.392 507.057 199.502 504.764 199.578C500.178 199.731 495.587 199.746 491 199.627C481.869 199.389 472.926 198.201 463.854 197.319C461.92 197.13 460.86 197.9 459.239 198.918C457.118 200.251 454.913 201.441 452.71 202.63Z" fill="#DEB887"/>
<path id="Vector 36" d="M477.219 217.291C495.541 217.291 510.395 212.813 510.395 207.29C510.395 201.766 495.541 197.289 477.219 197.289C458.896 197.289 444.043 201.766 444.043 207.29C444.043 212.813 458.896 217.291 477.219 217.291Z" fill="#FFCA7B"/>
<path id="Vector 37" d="M477.219 214.959C492.807 214.959 505.443 211.15 505.443 206.451C505.443 201.752 492.807 197.942 477.219 197.942C461.63 197.942 448.994 201.752 448.994 206.451C448.994 211.15 461.63 214.959 477.219 214.959Z" fill="#C1362F"/>
<path id="Vector 38" d="M468.951 141.762C472.315 140.994 475.809 141.189 479.254 141.337C498.736 142.176 518.246 141.381 537.729 140.584C533.136 158.362 528.536 176.174 525.614 194.316C525.603 194.381 504.754 193.406 502.841 193.365C495.193 193.208 487.541 193.117 479.897 192.791C476.056 192.626 472.215 192.404 468.382 192.084C466.404 191.918 460.081 192.388 459.569 190.044C459.243 188.554 460.079 186.249 460.321 184.765C460.63 182.882 460.946 181.001 461.272 179.12C461.942 175.257 462.648 171.4 463.392 167.55C465.059 158.914 466.912 150.316 468.951 141.762Z" fill="#DEB887"/>
<path id="Vector 39" d="M416.76 214.173C424.733 214.418 432.702 214.776 440.669 215.175C460.772 216.182 480.862 217.443 500.935 218.959C501.228 218.981 501.544 219.013 501.763 219.212C502.076 219.497 502.062 219.99 502.023 220.416C501.786 223.013 501.549 225.609 501.311 228.206C475.827 227.223 450.342 226.24 424.859 225.259C422.643 225.173 416.72 225.475 415.301 223.338C414.628 222.327 416.223 214.157 416.76 214.173Z" fill="#DEB887"/>
<path id="Vector 40" d="M467.912 202.341C469.871 202.341 471.458 202.026 471.458 201.638C471.458 201.25 469.871 200.936 467.912 200.936C465.954 200.936 464.367 201.25 464.367 201.638C464.367 202.026 465.954 202.341 467.912 202.341Z" fill="#A00D0D"/>
<path id="Vector 41" d="M477.219 203.219C478.549 203.219 479.627 203.005 479.627 202.743C479.627 202.48 478.549 202.266 477.219 202.266C475.888 202.266 474.811 202.48 474.811 202.743C474.811 203.005 475.888 203.219 477.219 203.219Z" fill="#A00D0D"/>
<path id="Vector 42" d="M467.518 206.726C468.848 206.726 469.926 206.513 469.926 206.25C469.926 205.987 468.848 205.773 467.518 205.773C466.188 205.773 465.11 205.987 465.11 206.25C465.11 206.513 466.188 206.726 467.518 206.726Z" fill="#A00D0D"/>
<path id="Vector 43" d="M487.36 202.743C489.396 202.743 491.047 202.338 491.047 201.839C491.047 201.341 489.396 200.936 487.36 200.936C485.324 200.936 483.673 201.341 483.673 201.839C483.673 202.338 485.324 202.743 487.36 202.743Z" fill="#A00D0D"/>
<path id="Vector 44" d="M486.08 207.29C487.41 207.29 488.488 207.076 488.488 206.813C488.488 206.55 487.41 206.336 486.08 206.336C484.75 206.336 483.672 206.55 483.672 206.813C483.672 207.076 484.75 207.29 486.08 207.29Z" fill="#A00D0D"/>
<path id="Vector 45" d="M496.222 206.813C498.258 206.813 499.909 206.408 499.909 205.91C499.909 205.412 498.258 205.007 496.222 205.007C494.187 205.007 492.536 205.412 492.536 205.91C492.536 206.408 494.187 206.813 496.222 206.813Z" fill="#A00D0D"/>
<path id="Vector 46" d="M457.718 206.952C459.677 206.952 461.264 206.638 461.264 206.25C461.264 205.862 459.677 205.548 457.718 205.548C455.76 205.548 454.172 205.862 454.172 206.25C454.172 206.638 455.76 206.952 457.718 206.952Z" fill="#6C6D6F"/>
<path id="Vector 47" d="M477.714 211.167C479.044 211.167 480.121 210.954 480.121 210.691C480.121 210.428 479.044 210.214 477.714 210.214C476.383 210.214 475.306 210.428 475.306 210.691C475.306 210.954 476.383 211.167 477.714 211.167Z" fill="#A00D0D"/>
<path id="Vector 48" d="M458.856 211.167C460.186 211.167 461.264 210.954 461.264 210.691C461.264 210.428 460.186 210.214 458.856 210.214C457.526 210.214 456.448 210.428 456.448 210.691C456.448 210.954 457.526 211.167 458.856 211.167Z" fill="#6C6D6F"/>
<path id="Vector 49" d="M467.912 211.393C469.871 211.393 471.458 211.079 471.458 210.691C471.458 210.303 469.871 209.988 467.912 209.988C465.954 209.988 464.367 210.303 464.367 210.691C464.367 211.079 465.954 211.393 467.912 211.393Z" fill="#A00D0D"/>
<path id="Vector 50" d="M496.517 211.167C497.847 211.167 498.925 210.954 498.925 210.691C498.925 210.428 497.847 210.214 496.517 210.214C495.187 210.214 494.109 210.428 494.109 210.691C494.109 210.954 495.187 211.167 496.517 211.167Z" fill="#A00D0D"/>
<path id="Vector 51" d="M486.716 211.393C488.675 211.393 490.262 211.079 490.262 210.691C490.262 210.303 488.675 209.988 486.716 209.988C484.758 209.988 483.17 210.303 483.17 210.691C483.17 211.079 484.758 211.393 486.716 211.393Z" fill="#A00D0D"/>
<path id="Vector 52" d="M477.165 207.354C479.201 207.354 480.852 206.949 480.852 206.451C480.852 205.952 479.201 205.548 477.165 205.548C475.13 205.548 473.479 205.952 473.479 206.451C473.479 206.949 475.13 207.354 477.165 207.354Z" fill="#A00D0D"/>
<path id="Vector 53" d="M465.329 201.014L461.299 202.64L461.479 203.106L465.509 201.48L465.329 201.014Z" fill="#F7E659"/>
<path id="Vector 54" d="M473.459 204.697L473.247 205.149L477.156 207.057L477.368 206.605L473.459 204.697Z" fill="#FFFF5F"/>
<path id="Vector 55" d="M489.201 207.594L488.989 208.046L492.898 209.955L493.111 209.503L489.201 207.594Z" fill="#FFFF5F"/>
<path id="Vector 56" d="M460.46 208.776L460.248 209.228L464.156 211.137L464.369 210.685L460.46 208.776Z" fill="#DDC033"/>
<path id="Vector 57" d="M487.141 201.529L486.928 201.981L490.836 203.89L491.049 203.438L487.141 201.529Z" fill="#FFFF5F"/>
<path id="Vector 58" d="M579.703 114.726C579.703 114.726 585.503 89.9387 588.886 86.4915C592.269 83.0443 600.144 85.0142 604.172 102.907C608.2 120.8 606.126 119.487 579.703 114.726Z" fill="#C1362F"/>
<path id="Vector 59" d="M580.558 119.323C580.558 119.323 605.481 124.247 607.091 117.845C608.703 111.443 606.787 113.706 601.13 114.398C595.473 115.09 580.508 115.218 579.702 114.726C578.897 114.233 577.064 119.815 580.558 119.323Z" fill="#FFCA7B"/>
<path id="Vector 60" d="M588.985 96.7622C590.085 96.7622 590.976 95.8541 590.976 94.7333C590.976 93.6124 590.085 92.7043 588.985 92.7043C587.885 92.7043 586.993 93.6124 586.993 94.7333C586.993 95.8541 587.885 96.7622 588.985 96.7622Z" fill="#A00D0D"/>
<path id="Vector 61" d="M590.631 107.508C591.731 107.508 592.622 106.599 592.622 105.479C592.622 104.358 591.731 103.45 590.631 103.45C589.531 103.45 588.639 104.358 588.639 105.479C588.639 106.599 589.531 107.508 590.631 107.508Z" fill="#A00D0D"/>
<path id="Vector 62" d="M599.851 108.739C600.951 108.739 601.842 107.831 601.842 106.71C601.842 105.589 600.951 104.681 599.851 104.681C598.751 104.681 597.86 105.589 597.86 106.71C597.86 107.831 598.751 108.739 599.851 108.739Z" fill="#A00D0D"/>
<path id="Vector 63" d="M598.973 100.671C600.073 100.671 600.965 99.7632 600.965 98.6423C600.965 97.5215 600.073 96.6134 598.973 96.6134C597.873 96.6134 596.982 97.5215 596.982 98.6423C596.982 99.7632 597.873 100.671 598.973 100.671Z" fill="#A00D0D"/>
<path id="Vector 64" d="M595.31 93.0077C596.009 93.0077 596.577 92.4296 596.577 91.7175C596.577 91.0044 596.009 90.4272 595.31 90.4272C594.611 90.4272 594.044 91.0044 594.044 91.7175C594.044 92.4296 594.611 93.0077 595.31 93.0077Z" fill="#A00D0D"/>
<path id="Vector 65" d="M592.308 101.223C593.008 101.223 593.574 100.645 593.574 99.9326C593.574 99.2205 593.008 98.6424 592.308 98.6424C591.609 98.6424 591.042 99.2205 591.042 99.9326C591.042 100.645 591.609 101.223 592.308 101.223Z" fill="#A00D0D"/>
<path id="Vector 66" d="M585.689 103.464C586.388 103.464 586.956 102.886 586.956 102.174C586.956 101.462 586.388 100.884 585.689 100.884C584.989 100.884 584.423 101.462 584.423 102.174C584.423 102.886 584.989 103.464 585.689 103.464Z" fill="#A00D0D"/>
<path id="Vector 67" d="M585.296 107.498C585.383 107.626 585.352 107.801 585.226 107.891C585.1 107.979 584.928 107.948 584.84 107.82L583.549 105.922C583.462 105.794 583.493 105.618 583.619 105.529C583.744 105.44 583.916 105.472 584.004 105.6L585.296 107.498Z" fill="#FFFF5F"/>
<path id="Vector 68" d="M589.857 110.324C589.944 110.452 589.914 110.628 589.788 110.717C589.662 110.806 589.49 110.774 589.402 110.646L588.111 108.749C588.024 108.62 588.055 108.445 588.18 108.356C588.306 108.267 588.478 108.298 588.566 108.426L589.857 110.324Z" fill="#FFFF5F"/>
<path id="Vector 69" d="M588.606 106.124C588.565 106.273 588.412 106.362 588.265 106.321C588.119 106.279 588.032 106.124 588.072 105.974L588.675 103.747C588.716 103.597 588.869 103.509 589.016 103.55C589.163 103.592 589.249 103.747 589.209 103.897L588.606 106.124Z" fill="#FFFF5F"/>
<path id="Vector 70" d="M592.852 106.89C592.812 107.04 592.659 107.128 592.512 107.087C592.365 107.046 592.278 106.89 592.319 106.74L592.922 104.513C592.962 104.364 593.115 104.275 593.262 104.316C593.409 104.358 593.496 104.513 593.455 104.663L592.852 106.89Z" fill="#FFFF5F"/>
<path id="Vector 71" d="M591.202 96.9582C591.289 97.0862 591.258 97.2615 591.133 97.3512C591.007 97.4398 590.835 97.4083 590.747 97.2802L589.455 95.3823C589.368 95.2543 589.399 95.079 589.525 94.9893C589.651 94.9007 589.823 94.9322 589.911 95.0602L591.202 96.9582Z" fill="#FFFF5F"/>
<path id="Vector 72" d="M595.763 99.7849C595.85 99.9129 595.819 100.088 595.693 100.178C595.568 100.266 595.396 100.235 595.308 100.107L594.016 98.209C593.929 98.0809 593.96 97.9056 594.086 97.816C594.211 97.7274 594.383 97.7589 594.471 97.8869L595.763 99.7849Z" fill="#FFFF5F"/>
<path id="Vector 73" d="M594.511 95.5832C594.47 95.7329 594.318 95.8216 594.171 95.7802C594.024 95.7389 593.937 95.5832 593.977 95.4335L594.581 93.2066C594.621 93.0569 594.774 92.9683 594.921 93.0096C595.068 93.051 595.155 93.2066 595.114 93.3563L594.511 95.5832Z" fill="#FFFF5F"/>
<path id="Vector 74" d="M598.758 96.3505C598.717 96.5002 598.564 96.5888 598.417 96.5474C598.269 96.5061 598.183 96.3505 598.224 96.2008L598.827 93.9739C598.868 93.8242 599.021 93.7355 599.167 93.7769C599.315 93.8183 599.401 93.9739 599.361 94.1236L598.758 96.3505Z" fill="#FFFF5F"/>
<path id="Vector 75" d="M595.261 110.324C595.348 110.452 595.317 110.628 595.192 110.717C595.066 110.806 594.894 110.774 594.806 110.646L593.514 108.749C593.427 108.62 593.458 108.445 593.584 108.356C593.71 108.267 593.882 108.298 593.97 108.426L595.261 110.324Z" fill="#FFFF5F"/>
<path id="Vector 76" d="M601.499 105.724C601.586 105.852 601.555 106.027 601.43 106.117C601.304 106.206 601.132 106.174 601.044 106.046L599.752 104.148C599.665 104.02 599.696 103.845 599.822 103.755C599.948 103.666 600.12 103.698 600.208 103.826L601.499 105.724Z" fill="#FFFF5F"/>
<path id="Vector 77" d="M597.826 109.552C597.785 109.702 597.632 109.791 597.486 109.749C597.339 109.708 597.252 109.552 597.292 109.403L597.895 107.176C597.936 107.026 598.089 106.937 598.236 106.979C598.383 107.02 598.47 107.176 598.429 107.325L597.826 109.552Z" fill="#FFFF5F"/>
<path id="Vector 78" d="M602.818 110.948C602.777 111.098 602.624 111.186 602.477 111.145C602.329 111.103 602.243 110.948 602.284 110.798L602.887 108.571C602.928 108.422 603.081 108.333 603.227 108.374C603.375 108.416 603.461 108.571 603.421 108.721L602.818 110.948Z" fill="#FFFF5F"/>
<path id="Vector 79" d="M460.489 217.402C457.461 217.584 454.444 218.105 453.237 218.05C452.734 218.027 451.407 217.551 451.012 217.439C449.854 217.113 448.113 216.422 446.96 216.771L442.094 218.151C439.753 218.859 437.642 218.243 436.948 215.858C436.196 213.275 438.018 211.448 440.623 210.985L444.012 209.961C446.097 209.591 447.817 208.299 449.58 207.107C453.166 204.68 458.129 204.296 462.138 204.368C464.653 204.413 466.929 206.972 469.775 210.547C471.173 212.303 472.826 215.453 470.086 214.881C467.791 214.401 463.135 209.279 457.417 212.961C457.136 213.142 456.448 213.658 456.552 214.061C456.863 215.259 459.513 214.694 460.94 214.883C462.943 215.146 464.028 216.194 464.065 217.024C464.107 217.902 462.651 217.271 460.489 217.402Z" fill="#FEEDD3"/>
<path id="Vector 80" d="M309.556 148.14C309.556 148.14 349.007 201.795 377.362 210.285C394.453 215.402 431.073 219.513 439.529 220.417C440.608 220.532 441.632 219.918 442.047 218.898C442.314 218.245 442.599 217.484 442.808 216.765C443.02 216.036 443.193 215.062 443.324 214.149C443.542 212.638 442.611 211.207 441.166 210.803C430.485 207.82 388.412 195.857 380.869 190.46C372.214 184.267 335.699 138.447 325.771 134.764C315.843 131.081 304.338 136.26 309.556 148.14Z" fill="#A84538"/>
<path id="Vector 81" d="M337.748 254.953L321.036 135.307L275.949 129.001L252.498 254.088L337.748 254.953Z" fill="#FDDCD7"/>
<path id="Vector 82" d="M302.899 440.345L302.947 453.831C302.957 456.574 302.591 459.306 301.859 461.945L300.709 466.099C299.765 469.51 302.28 472.894 305.758 472.881C314.773 472.847 330.182 472.872 334.153 472.879C334.803 472.88 335.44 472.433 335.496 471.774C335.83 467.836 324.669 465.201 316.262 461.884C309.858 459.358 310.2 447.632 310.989 440.784C311.286 438.196 309.169 435.994 306.621 436.21C304.511 436.388 302.891 438.189 302.899 440.345Z" fill="#FEEDD3"/>
<path id="Vector 83" d="M240.938 436.562L236.377 451.99C236.176 452.672 235.875 453.319 235.485 453.909L232.252 458.801C230.2 461.906 231.677 466.149 235.191 467.241C235.191 467.241 241.71 469.578 248.43 471.827C255.309 474.13 263.96 472.205 263.96 470.356C263.96 466.247 260.2 469.508 253.902 465.216C251.791 463.778 249.613 462.273 247.671 460.72C242.25 456.385 246.984 445.409 250.302 439.226C251.496 437.005 250.229 434.245 247.797 433.716L246.226 433.375C243.918 432.876 241.619 434.261 240.938 436.562Z" fill="#FEEDD3"/>
<path id="Vector 84" d="M287.523 256.11L337.484 251.837C337.484 251.837 342.516 288.887 329.888 355.954C323.966 387.405 311.626 447.507 311.626 447.507C308.567 448.871 305.457 449.212 302.29 448.409C302.29 448.409 301.352 421.898 300.78 393.348C300.23 365.967 300.082 336.711 298.37 327.138C294.871 307.583 287.523 256.11 287.523 256.11Z" fill="#6C6D6F"/>
<path id="Vector 85" d="M297.835 256.756C302.993 284.962 314.517 327.14 292.32 366.762C270.124 406.385 246.811 447.578 246.811 447.578C243.807 447.703 241.083 446.593 238.552 444.635C238.552 444.635 242.443 426.672 248.069 405.697C254.505 381.703 262.657 353.479 260.334 338.764C255.981 311.185 250.982 274.455 252.497 256.618C254.013 238.783 295.123 241.924 297.835 256.756Z" fill="#6C6D6F"/>
<path id="Vector 86" d="M339.474 251.905L321.036 135.307L275.949 129.001L251.719 252.122C251.263 254.436 252.734 256.682 255.009 257.122C263.404 258.744 283.651 262.13 306.312 262.13C323.229 262.13 332.736 258.778 337.061 256.657C338.812 255.796 339.784 253.862 339.474 251.905Z" fill="#D3D3D3"/>
<path id="Vector 87" d="M250.238 297.035C249.548 294.025 249.18 290.93 248.786 289.766C248.621 289.281 247.795 288.12 247.578 287.766C246.942 286.727 245.797 285.223 245.797 283.998L245.713 278.852C245.713 276.364 244.533 274.478 242.091 274.478C239.448 274.478 238.246 276.776 238.552 279.452V283.054C238.796 285.196 238.07 287.244 237.449 289.305C236.184 293.499 237.235 298.455 238.442 302.351C239.199 304.796 242.255 306.292 246.428 308.055C248.478 308.921 251.912 309.64 250.594 307.127C249.49 305.021 243.347 301.93 245.187 295.298C245.278 294.972 245.568 294.152 245.976 294.14C247.192 294.104 247.413 296.852 247.996 298.193C248.814 300.075 250.108 300.838 250.9 300.638C251.737 300.425 250.73 299.183 250.238 297.035Z" fill="#FEEDD3"/>
<path id="Vector 88" d="M290.034 136.263C290.034 144.662 288.536 152.982 285.72 160.876C280.212 176.32 271.948 205.524 276.859 231.254C283.93 268.304 293.02 283.282 281.236 291.916C269.451 300.551 246.849 286.143 246.198 281.34C245.545 276.538 250.596 217.538 256.32 191.977C262.043 166.416 278.077 129.67 278.077 129.67L284.869 130.41C287.806 130.729 290.034 133.253 290.034 136.263Z" fill="#A84538"/>
<path id="Vector 89" d="M268.848 132.179C268.848 132.179 229.575 185.969 229.648 216.082C229.693 234.231 236.236 271.172 237.79 279.69C237.988 280.776 238.857 281.601 239.935 281.718C240.625 281.792 241.422 281.854 242.158 281.854C242.904 281.854 243.87 281.746 244.767 281.615C246.251 281.398 247.333 280.082 247.301 278.555C247.072 267.274 246.366 222.775 249.301 213.871C252.668 203.657 285.402 154.96 286.045 144.215C286.688 133.471 278.542 123.705 268.848 132.179Z" fill="#A84538"/>
<path id="Vector 90" d="M308.803 133.596C308.803 133.596 316.622 150.815 313.895 175.554C311.168 200.293 304.848 275.625 326.943 287.001C333.938 290.602 349.916 274.651 349.916 268.733C349.916 262.814 344.584 243.004 339.53 224.993C334.478 206.982 322.3 135.483 322.3 135.483L308.803 133.596Z" fill="#A84538"/>
<path id="Vector 91" d="M302.509 80.2304C292.447 80.2304 288.692 87.5286 288.5 101.03C288.429 106.086 290.661 111.096 292.458 114.295C293.793 116.671 294.159 119.485 293.397 122.111L291.187 129.73C289.685 136.799 292.98 140.675 297.844 142.083C300.253 142.78 303.14 142.239 305.244 140.855C307.745 139.208 307.95 135.665 307.486 132.668L306.916 130.495C306.147 127.568 307.812 124.414 310.717 123.766C318.465 122.04 319.576 113.811 321.651 101.03C323.814 87.7079 312.572 80.2304 302.509 80.2304Z" fill="#FEEDD3"/>
<path id="Vector 92" d="M302.138 72.7254C295.16 72.7254 283.633 76.7409 285.09 87.0017L286.375 94.2595C286.889 97.1581 289.262 99.3278 292.143 99.579H292.144C292.41 100.583 293.304 101.278 294.323 101.278C295.57 101.278 296.581 100.248 296.581 98.9772C296.581 95.7044 298.837 92.9112 301.971 92.1941C305.814 91.3146 309.921 91.1058 314.217 92.2818C322.1 94.4388 331.456 81.1405 331.468 81.0085C331.468 81.0085 327.477 84.1208 319.582 81.1661C311.688 78.2114 314.981 72.3285 302.138 72.7254Z" fill="#6C6D6F"/>
<path id="Vector 93" d="M294.048 101.278C294.048 104.408 292.904 106.945 289.946 106.945C286.988 106.945 285.09 102.64 285.09 99.5101C285.09 96.38 286.988 95.6098 289.946 95.6098C292.903 95.6098 294.048 98.1479 294.048 101.278Z" fill="#FEEDD3"/>
<path id="Vector 94" d="M292.824 115.019C292.824 115.019 300.34 125.546 309.691 124.12C309.691 124.12 307.749 125.067 307.278 126.604C307.277 126.603 298.394 125.934 292.824 115.019Z" fill="#FAE4C3"/>
<path id="Vector 95" d="M300.54 467.071H330.262C330.262 467.071 339.46 467.867 338.474 471.638C337.488 475.41 302.194 474.275 302.194 474.275C302.194 474.275 296.666 471.053 300.54 467.071Z" fill="#6C6D6F"/>
<path id="Vector 96" d="M231.282 457.959L261.881 466.273C261.881 466.273 267.494 472.511 265.282 475.697C263.068 478.883 230.371 465.299 230.371 465.299C230.371 465.299 226.289 460.318 231.282 457.959Z" fill="#6C6D6F"/>
</g>
</g>
</g>
</svg>
